<svg width="52" height="52" viewBox="0 0 52 52" fill="none" xmlns="http://www.w3.org/2000/svg">
<g filter="url(#filter0_d_10_1804)">
<path d="M2 11C2 5.47715 6.47715 1 12 1H40C45.5229 1 50 5.47715 50 11V39C50 44.5229 45.5228 49 40 49H12C6.47715 49 2 44.5228 2 39V11Z" fill="white" shape-rendering="crispEdges"/>
<path d="M2.5 11C2.5 5.75329 6.75329 1.5 12 1.5H40C45.2467 1.5 49.5 5.75329 49.5 11V39C49.5 44.2467 45.2467 48.5 40 48.5H12C6.75329 48.5 2.5 44.2467 2.5 39V11Z" stroke="#E7E7E7" shape-rendering="crispEdges"/>
<path d="M15 23H37M17 17H35C36.1046 17 37 17.8954 37 19V31C37 32.1046 36.1046 33 35 33H17C15.8954 33 15 32.1046 15 31V19C15 17.8954 15.8954 17 17 17Z" stroke="#007AFF" stroke-width="2" stroke-linecap="round" stroke-linejoin="round"/>
</g>
<defs>
<filter id="filter0_d_10_1804" x="0" y="0" width="52" height="52" filterUnits="userSpaceOnUse" color-interpolation-filters="sRGB">
<feFlood flood-opacity="0" result="BackgroundImageFix"/>
<feColorMatrix in="SourceAlpha" type="matrix" values="0 0 0 0 0 0 0 0 0 0 0 0 0 0 0 0 0 0 127 0" result="hardAlpha"/>
<feOffset dy="1"/>
<feGaussianBlur stdDeviation="1"/>
<feComposite in2="hardAlpha" operator="out"/>
<feColorMatrix type="matrix" values="0 0 0 0 0.0627451 0 0 0 0 0.0941176 0 0 0 0 0.156863 0 0 0 0.05 0"/>
<feBlend mode="normal" in2="BackgroundImageFix" result="effect1_dropShadow_10_1804"/>
<feBlend mode="normal" in="SourceGraphic" in2="effect1_dropShadow_10_1804" result="shape"/>
</filter>
</defs>
</svg>
