<svg width="52" height="52" viewBox="0 0 52 52" fill="none" xmlns="http://www.w3.org/2000/svg">
<g filter="url(#filter0_d_10_1816)">
<path d="M2 11C2 5.47715 6.47715 1 12 1H40C45.5229 1 50 5.47715 50 11V39C50 44.5229 45.5228 49 40 49H12C6.47715 49 2 44.5228 2 39V11Z" fill="white" shape-rendering="crispEdges"/>
<path d="M2.5 11C2.5 5.75329 6.75329 1.5 12 1.5H40C45.2467 1.5 49.5 5.75329 49.5 11V39C49.5 44.2467 45.2467 48.5 40 48.5H12C6.75329 48.5 2.5 44.2467 2.5 39V11Z" stroke="#E7E7E7" shape-rendering="crispEdges"/>
<path d="M36 29.9201V32.9201C36.0011 33.1986 35.9441 33.4743 35.8325 33.7294C35.7209 33.9846 35.5573 34.2137 35.3521 34.402C35.1468 34.5902 34.9046 34.7336 34.6407 34.8228C34.3769 34.912 34.0974 34.9452 33.82 34.9201C30.7428 34.5857 27.787 33.5342 25.19 31.8501C22.7738 30.3148 20.7253 28.2663 19.19 25.8501C17.5 23.2413 16.4482 20.2711 16.12 17.1801C16.095 16.9036 16.1279 16.6249 16.2165 16.3617C16.3051 16.0986 16.4476 15.8568 16.6348 15.6517C16.822 15.4466 17.0498 15.2828 17.3038 15.1706C17.5578 15.0584 17.8323 15.0004 18.11 15.0001H21.11C21.5953 14.9953 22.0658 15.1672 22.4338 15.4836C22.8017 15.8001 23.0421 16.2395 23.11 16.7201C23.2366 17.6802 23.4714 18.6228 23.81 19.5301C23.9445 19.888 23.9737 20.277 23.8939 20.651C23.8141 21.0249 23.6289 21.3682 23.36 21.6401L22.09 22.9101C23.5135 25.4136 25.5864 27.4865 28.09 28.9101L29.36 27.6401C29.6319 27.3712 29.9751 27.1859 30.3491 27.1062C30.7231 27.0264 31.1121 27.0556 31.47 27.1901C32.3773 27.5286 33.3199 27.7635 34.28 27.8901C34.7658 27.9586 35.2094 28.2033 35.5265 28.5776C35.8437 28.9519 36.0122 29.4297 36 29.9201Z" stroke="#007AFF" stroke-width="2" stroke-linecap="round" stroke-linejoin="round"/>
</g>
<defs>
<filter id="filter0_d_10_1816" x="0" y="0" width="52" height="52" filterUnits="userSpaceOnUse" color-interpolation-filters="sRGB">
<feFlood flood-opacity="0" result="BackgroundImageFix"/>
<feColorMatrix in="SourceAlpha" type="matrix" values="0 0 0 0 0 0 0 0 0 0 0 0 0 0 0 0 0 0 127 0" result="hardAlpha"/>
<feOffset dy="1"/>
<feGaussianBlur stdDeviation="1"/>
<feComposite in2="hardAlpha" operator="out"/>
<feColorMatrix type="matrix" values="0 0 0 0 0.0627451 0 0 0 0 0.0941176 0 0 0 0 0.156863 0 0 0 0.05 0"/>
<feBlend mode="normal" in2="BackgroundImageFix" result="effect1_dropShadow_10_1816"/>
<feBlend mode="normal" in="SourceGraphic" in2="effect1_dropShadow_10_1816" result="shape"/>
</filter>
</defs>
</svg>
