<svg width="52" height="52" viewBox="0 0 52 52" fill="none" xmlns="http://www.w3.org/2000/svg">
<g filter="url(#filter0_d_1_86696)">
<path d="M2.5 11C2.5 5.75329 6.75329 1.5 12 1.5H40C45.2467 1.5 49.5 5.75329 49.5 11V39C49.5 44.2467 45.2467 48.5 40 48.5H12C6.75329 48.5 2.5 44.2467 2.5 39V11Z" stroke="#E7E7E7" shape-rendering="crispEdges"/>
<path d="M35 15L33 17M33 17L36 20L32.5 23.5L29.5 20.5M33 17L29.5 20.5M25.39 24.61C25.9064 25.1195 26.3168 25.726 26.5978 26.3948C26.8787 27.0635 27.0246 27.7813 27.0271 28.5066C27.0295 29.232 26.8884 29.9507 26.6119 30.6213C26.3355 31.2919 25.9291 31.9012 25.4162 32.4141C24.9033 32.9271 24.294 33.3334 23.6233 33.6099C22.9527 33.8864 22.234 34.0275 21.5087 34.025C20.7833 34.0226 20.0656 33.8767 19.3968 33.5958C18.7281 33.3148 18.1215 32.9043 17.612 32.388C16.6102 31.3507 16.0558 29.9614 16.0683 28.5193C16.0809 27.0772 16.6593 25.6977 17.679 24.678C18.6988 23.6583 20.0782 23.0798 21.5203 23.0673C22.9624 23.0548 24.3517 23.6091 25.389 24.611L25.39 24.61ZM25.39 24.61L29.5 20.5" stroke="#007AFF" stroke-width="2" stroke-linecap="round" stroke-linejoin="round"/>
</g>
<defs>
<filter id="filter0_d_1_86696" x="0" y="0" width="52" height="52" filterUnits="userSpaceOnUse" color-interpolation-filters="sRGB">
<feFlood flood-opacity="0" result="BackgroundImageFix"/>
<feColorMatrix in="SourceAlpha" type="matrix" values="0 0 0 0 0 0 0 0 0 0 0 0 0 0 0 0 0 0 127 0" result="hardAlpha"/>
<feOffset dy="1"/>
<feGaussianBlur stdDeviation="1"/>
<feComposite in2="hardAlpha" operator="out"/>
<feColorMatrix type="matrix" values="0 0 0 0 0.0627451 0 0 0 0 0.0941176 0 0 0 0 0.156863 0 0 0 0.05 0"/>
<feBlend mode="normal" in2="BackgroundImageFix" result="effect1_dropShadow_1_86696"/>
<feBlend mode="normal" in="SourceGraphic" in2="effect1_dropShadow_1_86696" result="shape"/>
</filter>
</defs>
</svg>
