<svg width="32" height="32" viewBox="0 0 32 32" fill="none" xmlns="http://www.w3.org/2000/svg">
<path d="M26.4048 6.6641C26.0904 6.34976 25.7761 6.03542 25.4617 5.72108C24.5187 4.71518 23.5128 3.70929 22.2554 3.08061C20.8095 2.32618 19.2378 2.51478 17.6661 2.51478C15.2771 2.51478 9.30456 2.51478 5.78394 2.51478L8.17294 5.72108C12.5109 5.72108 19.3006 5.72108 22.4441 5.72108C23.7643 5.72108 24.8959 5.97255 25.9647 6.6641C26.1533 6.72697 26.3419 6.72697 26.4048 6.6641Z" fill="#1EACFF"/>
<path d="M29.0452 11.8194C28.7309 11.505 28.4165 11.1907 28.1022 10.8763C27.1592 9.87045 26.1533 8.86456 24.8959 8.23587C23.4499 7.48145 21.8782 7.67006 20.3065 7.67006C18.2319 7.67006 13.2653 7.67006 9.74463 7.67006L12.1336 10.8763C16.4087 10.8763 22.2554 10.8763 25.1474 10.8763C26.4676 10.8763 27.5993 11.1278 28.668 11.8194C28.7938 11.8822 28.9195 11.8822 29.0452 11.8194Z" fill="#007AFF"/>
<path d="M32 16.8487C31.6857 16.5343 31.3713 16.22 31.057 15.9056C30.114 14.8998 29.1081 13.8939 27.8507 13.2652C26.4047 12.5107 24.833 12.6994 23.2613 12.6994C21.3124 12.6994 17.0374 12.6994 13.5796 12.6994L15.9686 15.9056C20.1179 15.9056 25.3988 15.9056 28.0393 15.9056C29.3596 15.9056 30.4912 16.1571 31.5599 16.8487C31.7485 16.9115 31.8743 16.9744 32 16.8487Z" fill="#085DC5"/>
<path d="M5.53247 25.3359C5.84681 25.6502 6.16115 25.9646 6.4755 26.2789C7.41852 27.2848 8.42441 28.2907 9.68178 28.9194C11.1278 29.6738 12.6995 29.4852 14.2712 29.4852H26.1533L23.7643 26.2789C19.4264 26.2789 12.6366 26.2789 9.49318 26.2789C8.17294 26.2789 7.04131 26.0275 5.97255 25.3359C5.78394 25.273 5.65821 25.273 5.53247 25.3359Z" fill="#1EACFF"/>
<path d="M2.89197 20.1809C3.20631 20.4952 3.52065 20.8096 3.83499 21.1239C4.77802 22.1298 5.78391 23.1357 7.04128 23.7644C8.48725 24.5188 10.059 24.3302 11.6307 24.3302H22.1926L19.8036 21.1239C15.5285 21.1239 9.68175 21.1239 6.78981 21.1239C5.46957 21.1239 4.33793 20.8724 3.26917 20.1809C3.14344 20.118 3.0177 20.118 2.89197 20.1809Z" fill="#007AFF"/>
<path d="M0 15.0883C0.314342 15.4027 0.628684 15.717 0.943026 16.0314C1.88605 17.0373 2.89195 18.0432 4.14932 18.6718C5.59529 19.4263 7.16699 19.2377 8.7387 19.2377H18.4204L16.0314 16.0314C11.8821 16.0314 6.60118 16.0314 3.96071 16.0314C2.64047 16.0314 1.50884 15.7799 0.440077 15.0883C0.251472 15.0255 0.125737 15.0255 0 15.0883Z" fill="#085DC5"/>
</svg>
