<svg width="92" height="92" viewBox="0 0 92 92" fill="none" xmlns="http://www.w3.org/2000/svg">
<g filter="url(#filter0_d_144_296)">
<path d="M2 13C2 6.37258 7.37258 1 14 1H78C84.6274 1 90 6.37258 90 13V77C90 83.6274 84.6274 89 78 89H14C7.37258 89 2 83.6274 2 77V13Z" fill="white" shape-rendering="crispEdges"/>
<path d="M2.5 13C2.5 6.64873 7.64873 1.5 14 1.5H78C84.3513 1.5 89.5 6.64873 89.5 13V77C89.5 83.3513 84.3513 88.5 78 88.5H14C7.64873 88.5 2.5 83.3513 2.5 77V13Z" stroke="#EFEFEF" shape-rendering="crispEdges"/>
<path fill-rule="evenodd" clip-rule="evenodd" d="M46 57.3034C43.1432 59.7114 39.4376 61.165 35.3884 61.165C26.3532 61.165 19.0287 53.9276 19.0287 45C19.0287 36.0723 26.3532 28.835 35.3884 28.835C39.4377 28.835 43.1434 30.2887 46.0002 32.6967C48.8569 30.2888 52.5626 28.8352 56.6118 28.8352C65.647 28.8352 72.9715 36.0725 72.9715 45.0002C72.9715 53.9278 65.647 61.1652 56.6118 61.1652C52.5625 61.1652 48.8567 59.7115 46 57.3034Z" fill="#ED0006"/>
<path fill-rule="evenodd" clip-rule="evenodd" d="M46 57.3034C49.5176 54.3384 51.748 49.9266 51.748 45C51.748 40.0733 49.5176 35.6615 46 32.6965C48.8567 30.2886 52.5624 28.835 56.6116 28.835C65.6468 28.835 72.9713 36.0723 72.9713 45C72.9713 53.9276 65.6468 61.165 56.6116 61.165C52.5624 61.165 48.8567 59.7113 46 57.3034Z" fill="#F9A000"/>
<path fill-rule="evenodd" clip-rule="evenodd" d="M46 57.3035C49.5175 54.3385 51.748 49.9267 51.748 45.0001C51.748 40.0736 49.5175 35.6617 46 32.6968C42.4825 35.6617 40.2521 40.0736 40.2521 45.0001C40.2521 49.9267 42.4825 54.3385 46 57.3035Z" fill="#FF5E00"/>
</g>
<defs>
<filter id="filter0_d_144_296" x="0" y="0" width="92" height="92" filterUnits="userSpaceOnUse" color-interpolation-filters="sRGB">
<feFlood flood-opacity="0" result="BackgroundImageFix"/>
<feColorMatrix in="SourceAlpha" type="matrix" values="0 0 0 0 0 0 0 0 0 0 0 0 0 0 0 0 0 0 127 0" result="hardAlpha"/>
<feOffset dy="1"/>
<feGaussianBlur stdDeviation="1"/>
<feComposite in2="hardAlpha" operator="out"/>
<feColorMatrix type="matrix" values="0 0 0 0 0.0627451 0 0 0 0 0.0941176 0 0 0 0 0.156863 0 0 0 0.05 0"/>
<feBlend mode="normal" in2="BackgroundImageFix" result="effect1_dropShadow_144_296"/>
<feBlend mode="normal" in="SourceGraphic" in2="effect1_dropShadow_144_296" result="shape"/>
</filter>
</defs>
</svg>
