<svg width="74" height="26" viewBox="0 0 74 26" fill="none" xmlns="http://www.w3.org/2000/svg">
<path d="M0 19.8645V1.15556H6.16296C8.12557 1.15556 9.59295 1.65079 10.5651 2.64127C11.5556 3.63175 12.0508 4.95238 12.0508 6.60318V8.06138C12.0508 9.71217 11.5556 11.042 10.5651 12.0508C9.59295 13.0413 8.12557 13.5365 6.16296 13.5365H3.30159V19.8645H0ZM6.16296 4.31958H3.30159V10.3725H6.16296C6.97002 10.3725 7.58448 10.1707 8.00635 9.7672C8.44656 9.36367 8.66667 8.79506 8.66667 8.06138V6.60318C8.66667 5.88783 8.44656 5.3284 8.00635 4.92487C7.58448 4.52134 6.97002 4.31958 6.16296 4.31958Z" fill="#1E1E1E"/>
<path d="M25.8166 20.0021C24.8812 20.0021 24.1292 19.8095 23.5606 19.4243C23.0103 19.0392 22.6068 18.5623 22.35 17.9937C21.5613 18.7273 20.8001 19.2684 20.0664 19.6169C19.3327 19.9654 18.544 20.1397 17.7002 20.1397C16.4713 20.1397 15.5634 19.7453 14.9764 18.9566C14.4078 18.1679 14.1235 17.1683 14.1235 15.9577C14.1235 15.1506 14.2703 14.4444 14.5637 13.8392C14.8756 13.2155 15.38 12.7295 16.077 12.381C16.774 12.0325 17.7278 11.8582 18.9383 11.8582C19.4152 11.8582 19.9105 11.8949 20.4241 11.9683C20.9376 12.0233 21.4512 12.0966 21.9648 12.1884V10.5651C21.9648 9.79471 21.7539 9.27196 21.332 8.99683C20.9101 8.70335 20.3415 8.55661 19.6262 8.55661C19.0759 8.55661 18.4706 8.62998 17.8103 8.77672C17.1683 8.92346 16.4713 9.15273 15.7193 9.46455L14.8114 6.76825C16.6639 6.01623 18.3422 5.64021 19.8463 5.64021C21.2036 5.64021 22.2491 5.86949 22.9828 6.32804C23.7348 6.7866 24.2576 7.39189 24.551 8.14392C24.8445 8.89594 24.9913 9.703 24.9913 10.5651V15.9302C24.9913 16.2053 25.0646 16.4713 25.2114 16.728C25.3764 16.9665 25.6883 17.0857 26.1468 17.0857H26.4495V20.0021H25.8166ZM17.1775 15.9026C17.1775 16.3979 17.2875 16.7922 17.5077 17.0857C17.7278 17.3608 18.0487 17.4984 18.4706 17.4984C18.8925 17.4984 19.3694 17.3884 19.9013 17.1683C20.4332 16.9481 21.1211 16.4346 21.9648 15.6275V14.4444C21.011 14.2794 20.0756 14.1968 19.1584 14.1968C18.4431 14.1968 17.9295 14.3436 17.6177 14.637C17.3242 14.9305 17.1775 15.3524 17.1775 15.9026Z" fill="#1E1E1E"/>
<path d="M34.4334 21.2402C33.8282 22.9277 33.0578 24.1383 32.1223 24.872C31.1869 25.624 29.9029 26 28.2705 26V22.836C29.2426 22.7993 30.0038 22.5792 30.5541 22.1757C31.1227 21.7905 31.5446 21.2494 31.8197 20.5524L32.0673 19.9196L27.0874 5.91534H30.2239L32.6176 12.8762L33.553 15.8201L34.461 12.8762L36.7446 5.91534H39.8811L34.4334 21.2402Z" fill="#1E1E1E"/>
<path d="M40.7071 4.31958V1.15556H54.4637V4.31958H49.2362V19.8645H45.9346V4.31958H40.7071Z" fill="#1E1E1E"/>
<path d="M60.2516 3.27407H56.9225V0H60.2516V3.27407ZM60.1691 19.8645H57.005V5.91534H60.1691V19.8645Z" fill="#1E1E1E"/>
<path d="M66.9493 12.0783V13.7016C66.9493 14.8755 67.1603 15.7559 67.5822 16.3429C68.004 16.9298 68.6827 17.2233 69.6181 17.2233C70.0767 17.2233 70.5903 17.1683 71.1589 17.0582C71.7458 16.9298 72.3786 16.7372 73.0573 16.4804L73.9652 19.1492C73.1398 19.4794 72.3603 19.727 71.6266 19.8921C70.8929 20.0571 70.1684 20.1397 69.453 20.1397C67.6188 20.1397 66.2157 19.5527 65.2435 18.3788C64.2714 17.2049 63.7853 15.6459 63.7853 13.7016V12.0783C63.7853 10.1157 64.2714 8.55661 65.2435 7.40106C66.2157 6.22716 67.6188 5.64021 69.453 5.64021C70.15 5.64021 70.8562 5.72275 71.5716 5.88783C72.2869 6.05291 73.0389 6.29136 73.8277 6.60318L72.9197 9.32698C71.5991 8.8134 70.4986 8.55661 69.6181 8.55661C68.6827 8.55661 68.004 8.85009 67.5822 9.43704C67.1603 10.0056 66.9493 10.8861 66.9493 12.0783Z" fill="#1E1E1E"/>
</svg>
