<svg width="115" height="38" viewBox="0 0 115 38" fill="none" xmlns="http://www.w3.org/2000/svg">
<g filter="url(#filter0_dd_144_708)">
<g clip-path="url(#clip0_144_708)">
<path d="M3 14.8C3 10.3196 3 8.07937 3.87195 6.36808C4.63893 4.86278 5.86278 3.63893 7.36808 2.87195C9.07937 2 11.3196 2 15.8 2H22.2C26.6804 2 28.9206 2 30.6319 2.87195C32.1372 3.63893 33.3611 4.86278 34.1281 6.36808C35 8.07937 35 10.3196 35 14.8V21.2C35 25.6804 35 27.9206 34.1281 29.6319C33.3611 31.1372 32.1372 32.3611 30.6319 33.1281C28.9206 34 26.6804 34 22.2 34H15.8C11.3196 34 9.07937 34 7.36808 33.1281C5.86278 32.3611 4.63893 31.1372 3.87195 29.6319C3 27.9206 3 25.6804 3 21.2V14.8Z" fill="white"/>
<path d="M3 14.8C3 10.3196 3 8.07937 3.87195 6.36808C4.63893 4.86278 5.86278 3.63893 7.36808 2.87195C9.07937 2 11.3196 2 15.8 2H22.2C26.6804 2 28.9206 2 30.6319 2.87195C32.1372 3.63893 33.3611 4.86278 34.1281 6.36808C35 8.07937 35 10.3196 35 14.8V21.2C35 25.6804 35 27.9206 34.1281 29.6319C33.3611 31.1372 32.1372 32.3611 30.6319 33.1281C28.9206 34 26.6804 34 22.2 34H15.8C11.3196 34 9.07937 34 7.36808 33.1281C5.86278 32.3611 4.63893 31.1372 3.87195 29.6319C3 27.9206 3 25.6804 3 21.2V14.8Z" fill="white"/>
<path d="M26.8036 10.9983C26.5678 10.7626 26.332 10.5268 26.0963 10.291C25.389 9.53662 24.6346 8.7822 23.6916 8.31069C22.6071 7.74487 21.4283 7.88632 20.2495 7.88632C18.4578 7.88632 13.9784 7.88632 11.3379 7.88632L13.1297 10.291C16.3831 10.291 21.4755 10.291 23.833 10.291C24.8232 10.291 25.6719 10.4796 26.4735 10.9983C26.615 11.0455 26.7564 11.0455 26.8036 10.9983Z" fill="#1EACFF"/>
<path d="M28.7839 14.8635C28.5482 14.6278 28.3124 14.392 28.0766 14.1563C27.3694 13.4018 26.615 12.6474 25.6719 12.1759C24.5875 11.6101 23.4087 11.7516 22.2299 11.7516C20.6739 11.7516 16.9489 11.7516 14.3085 11.7516L16.1002 14.1563C19.3065 14.1563 23.6916 14.1563 25.8605 14.1563C26.8507 14.1563 27.6994 14.3449 28.501 14.8635C28.5953 14.9107 28.6896 14.9107 28.7839 14.8635Z" fill="#007AFF"/>
<path d="M31 18.636C30.7643 18.4002 30.5285 18.1645 30.2927 17.9287C29.5855 17.1743 28.8311 16.4199 27.888 15.9484C26.8036 15.3826 25.6248 15.524 24.446 15.524C22.9843 15.524 19.778 15.524 17.1847 15.524L18.9764 17.9287C22.0884 17.9287 26.0491 17.9287 28.0295 17.9287C29.0197 17.9287 29.8684 18.1173 30.67 18.636C30.8114 18.6832 30.9057 18.7303 31 18.636Z" fill="#085DC5"/>
<path d="M11.1494 25.0026C11.3851 25.2384 11.6209 25.4742 11.8566 25.7099C12.5639 26.4643 13.3183 27.2188 14.2613 27.6903C15.3458 28.2561 16.5246 28.1146 17.7034 28.1146H26.615L24.8232 25.7099C21.5698 25.7099 16.4775 25.7099 14.1199 25.7099C13.1297 25.7099 12.281 25.5213 11.4794 25.0026C11.338 24.9555 11.2437 24.9555 11.1494 25.0026Z" fill="#1EACFF"/>
<path d="M9.16897 21.1359C9.40472 21.3717 9.64048 21.6075 9.87624 21.8432C10.5835 22.5976 11.3379 23.3521 12.2809 23.8236C13.3654 24.3894 14.5442 24.2479 15.723 24.2479H23.6444L21.8527 21.8432C18.6464 21.8432 14.2613 21.8432 12.0923 21.8432C11.1022 21.8432 10.2534 21.6546 9.45187 21.1359C9.35757 21.0888 9.26327 21.0888 9.16897 21.1359Z" fill="#007AFF"/>
<path d="M7 17.3161C7.23576 17.5519 7.47151 17.7876 7.70727 18.0234C8.41454 18.7778 9.16896 19.5322 10.112 20.0038C11.1965 20.5696 12.3752 20.4281 13.554 20.4281H20.8153L19.0236 18.0234C15.9116 18.0234 11.9509 18.0234 9.97053 18.0234C8.98036 18.0234 8.13163 17.8348 7.33006 17.3161C7.1886 17.269 7.0943 17.269 7 17.3161Z" fill="#085DC5"/>
</g>
<path d="M3.1 14.8C3.1 12.5581 3.10008 10.8828 3.20866 9.55376C3.31715 8.22593 3.53345 7.25268 3.96105 6.41348C4.71845 4.92699 5.92699 3.71845 7.41348 2.96105C8.25268 2.53345 9.22593 2.31715 10.5538 2.20866C11.8828 2.10008 13.5581 2.1 15.8 2.1H22.2C24.4419 2.1 26.1172 2.10008 27.4462 2.20866C28.7741 2.31715 29.7473 2.53345 30.5865 2.96105C32.073 3.71845 33.2816 4.92699 34.039 6.41348C34.4665 7.25268 34.6828 8.22593 34.7913 9.55376C34.8999 10.8828 34.9 12.5581 34.9 14.8V21.2C34.9 23.4419 34.8999 25.1172 34.7913 26.4462C34.6828 27.7741 34.4665 28.7473 34.039 29.5865C33.2816 31.073 32.073 32.2816 30.5865 33.039C29.7473 33.4665 28.7741 33.6828 27.4462 33.7913C26.1172 33.8999 24.4419 33.9 22.2 33.9H15.8C13.5581 33.9 11.8828 33.8999 10.5538 33.7913C9.22593 33.6828 8.25268 33.4665 7.41348 33.039C5.92699 32.2816 4.71845 31.073 3.96105 29.5865C3.53345 28.7473 3.31715 27.7741 3.20866 26.4462C3.10008 25.1172 3.1 23.4419 3.1 21.2V14.8Z" stroke="#D0D5DD" stroke-width="0.2"/>
</g>
<path d="M41 25.8645V7.15556H47.163C49.1256 7.15556 50.5929 7.65079 51.5651 8.64127C52.5556 9.63175 53.0508 10.9524 53.0508 12.6032V14.0614C53.0508 15.7122 52.5556 17.042 51.5651 18.0508C50.5929 19.0413 49.1256 19.5365 47.163 19.5365H44.3016V25.8645H41ZM47.163 10.3196H44.3016V16.3725H47.163C47.97 16.3725 48.5845 16.1707 49.0063 15.7672C49.4466 15.3637 49.6667 14.7951 49.6667 14.0614V12.6032C49.6667 11.8878 49.4466 11.3284 49.0063 10.9249C48.5845 10.5213 47.97 10.3196 47.163 10.3196Z" fill="white"/>
<path d="M66.8166 26.0021C65.8812 26.0021 65.1292 25.8095 64.5606 25.4243C64.0103 25.0392 63.6068 24.5623 63.35 23.9937C62.5613 24.7273 61.8001 25.2684 61.0664 25.6169C60.3327 25.9654 59.544 26.1397 58.7002 26.1397C57.4713 26.1397 56.5634 25.7453 55.9764 24.9566C55.4078 24.1679 55.1235 23.1683 55.1235 21.9577C55.1235 21.1506 55.2703 20.4444 55.5637 19.8392C55.8756 19.2155 56.38 18.7295 57.077 18.381C57.774 18.0325 58.7278 17.8582 59.9383 17.8582C60.4152 17.8582 60.9105 17.8949 61.4241 17.9683C61.9376 18.0233 62.4512 18.0966 62.9648 18.1884V16.5651C62.9648 15.7947 62.7539 15.272 62.332 14.9968C61.9101 14.7034 61.3415 14.5566 60.6262 14.5566C60.0759 14.5566 59.4706 14.63 58.8103 14.7767C58.1683 14.9235 57.4713 15.1527 56.7193 15.4646L55.8114 12.7683C57.6639 12.0162 59.3422 11.6402 60.8463 11.6402C62.2036 11.6402 63.2491 11.8695 63.9828 12.328C64.7348 12.7866 65.2576 13.3919 65.551 14.1439C65.8445 14.8959 65.9913 15.703 65.9913 16.5651V21.9302C65.9913 22.2053 66.0646 22.4713 66.2114 22.728C66.3764 22.9665 66.6883 23.0857 67.1468 23.0857H67.4495V26.0021H66.8166ZM58.1775 21.9026C58.1775 22.3979 58.2875 22.7922 58.5077 23.0857C58.7278 23.3608 59.0487 23.4984 59.4706 23.4984C59.8925 23.4984 60.3694 23.3884 60.9013 23.1683C61.4332 22.9481 62.1211 22.4346 62.9648 21.6275V20.4444C62.011 20.2794 61.0756 20.1968 60.1584 20.1968C59.4431 20.1968 58.9295 20.3436 58.6177 20.637C58.3242 20.9305 58.1775 21.3524 58.1775 21.9026Z" fill="white"/>
<path d="M75.4334 27.2402C74.8282 28.9277 74.0578 30.1383 73.1223 30.872C72.1869 31.624 70.9029 32 69.2705 32V28.836C70.2426 28.7993 71.0038 28.5792 71.5541 28.1757C72.1227 27.7905 72.5446 27.2494 72.8197 26.5524L73.0673 25.9196L68.0874 11.9153H71.2239L73.6176 18.8762L74.553 21.8201L75.461 18.8762L77.7446 11.9153H80.8811L75.4334 27.2402Z" fill="white"/>
<path d="M81.7071 10.3196V7.15556H95.4637V10.3196H90.2362V25.8645H86.9346V10.3196H81.7071Z" fill="white"/>
<path d="M101.252 9.27407H97.9225V6H101.252V9.27407ZM101.169 25.8645H98.005V11.9153H101.169V25.8645Z" fill="white"/>
<path d="M107.949 18.0783V19.7016C107.949 20.8755 108.16 21.7559 108.582 22.3429C109.004 22.9298 109.683 23.2233 110.618 23.2233C111.077 23.2233 111.59 23.1683 112.159 23.0582C112.746 22.9298 113.379 22.7372 114.057 22.4804L114.965 25.1492C114.14 25.4794 113.36 25.727 112.627 25.8921C111.893 26.0571 111.168 26.1397 110.453 26.1397C108.619 26.1397 107.216 25.5527 106.244 24.3788C105.271 23.2049 104.785 21.6459 104.785 19.7016V18.0783C104.785 16.1157 105.271 14.5566 106.244 13.4011C107.216 12.2272 108.619 11.6402 110.453 11.6402C111.15 11.6402 111.856 11.7228 112.572 11.8878C113.287 12.0529 114.039 12.2914 114.828 12.6032L113.92 15.327C112.599 14.8134 111.499 14.5566 110.618 14.5566C109.683 14.5566 109.004 14.8501 108.582 15.437C108.16 16.0056 107.949 16.8861 107.949 18.0783Z" fill="white"/>
<defs>
<filter id="filter0_dd_144_708" x="0" y="0" width="38" height="38" filterUnits="userSpaceOnUse" color-interpolation-filters="sRGB">
<feFlood flood-opacity="0" result="BackgroundImageFix"/>
<feColorMatrix in="SourceAlpha" type="matrix" values="0 0 0 0 0 0 0 0 0 0 0 0 0 0 0 0 0 0 127 0" result="hardAlpha"/>
<feOffset dy="1"/>
<feGaussianBlur stdDeviation="1"/>
<feColorMatrix type="matrix" values="0 0 0 0 0.0627451 0 0 0 0 0.0941176 0 0 0 0 0.156863 0 0 0 0.06 0"/>
<feBlend mode="normal" in2="BackgroundImageFix" result="effect1_dropShadow_144_708"/>
<feColorMatrix in="SourceAlpha" type="matrix" values="0 0 0 0 0 0 0 0 0 0 0 0 0 0 0 0 0 0 127 0" result="hardAlpha"/>
<feOffset dy="1"/>
<feGaussianBlur stdDeviation="1.5"/>
<feColorMatrix type="matrix" values="0 0 0 0 0.0627451 0 0 0 0 0.0941176 0 0 0 0 0.156863 0 0 0 0.1 0"/>
<feBlend mode="normal" in2="effect1_dropShadow_144_708" result="effect2_dropShadow_144_708"/>
<feBlend mode="normal" in="SourceGraphic" in2="effect2_dropShadow_144_708" result="shape"/>
</filter>
<clipPath id="clip0_144_708">
<path d="M3 14.8C3 10.3196 3 8.07937 3.87195 6.36808C4.63893 4.86278 5.86278 3.63893 7.36808 2.87195C9.07937 2 11.3196 2 15.8 2H22.2C26.6804 2 28.9206 2 30.6319 2.87195C32.1372 3.63893 33.3611 4.86278 34.1281 6.36808C35 8.07937 35 10.3196 35 14.8V21.2C35 25.6804 35 27.9206 34.1281 29.6319C33.3611 31.1372 32.1372 32.3611 30.6319 33.1281C28.9206 34 26.6804 34 22.2 34H15.8C11.3196 34 9.07937 34 7.36808 33.1281C5.86278 32.3611 4.63893 31.1372 3.87195 29.6319C3 27.9206 3 25.6804 3 21.2V14.8Z" fill="white"/>
</clipPath>
</defs>
</svg>
