<svg width="112" height="32" viewBox="0 0 112 32" fill="none" xmlns="http://www.w3.org/2000/svg">
<path d="M26.4048 6.6641C26.0904 6.34976 25.7761 6.03542 25.4617 5.72108C24.5187 4.71518 23.5128 3.70929 22.2554 3.08061C20.8095 2.32618 19.2378 2.51478 17.6661 2.51478C15.2771 2.51478 9.30456 2.51478 5.78394 2.51478L8.17294 5.72108C12.5109 5.72108 19.3006 5.72108 22.4441 5.72108C23.7643 5.72108 24.8959 5.97255 25.9647 6.6641C26.1533 6.72697 26.3419 6.72697 26.4048 6.6641Z" fill="#1EACFF"/>
<path d="M29.0452 11.8194C28.7309 11.505 28.4165 11.1907 28.1022 10.8763C27.1592 9.87045 26.1533 8.86456 24.8959 8.23587C23.4499 7.48145 21.8782 7.67006 20.3065 7.67006C18.2319 7.67006 13.2653 7.67006 9.74463 7.67006L12.1336 10.8763C16.4087 10.8763 22.2554 10.8763 25.1474 10.8763C26.4676 10.8763 27.5993 11.1278 28.668 11.8194C28.7938 11.8822 28.9195 11.8822 29.0452 11.8194Z" fill="#007AFF"/>
<path d="M32 16.8487C31.6857 16.5343 31.3713 16.22 31.057 15.9056C30.114 14.8998 29.1081 13.8939 27.8507 13.2652C26.4047 12.5107 24.833 12.6994 23.2613 12.6994C21.3124 12.6994 17.0374 12.6994 13.5796 12.6994L15.9686 15.9056C20.1179 15.9056 25.3988 15.9056 28.0393 15.9056C29.3596 15.9056 30.4912 16.1571 31.5599 16.8487C31.7485 16.9115 31.8743 16.9744 32 16.8487Z" fill="#085DC5"/>
<path d="M5.53247 25.3359C5.84681 25.6502 6.16115 25.9646 6.4755 26.2789C7.41852 27.2848 8.42441 28.2907 9.68178 28.9194C11.1278 29.6738 12.6995 29.4852 14.2712 29.4852H26.1533L23.7643 26.2789C19.4264 26.2789 12.6366 26.2789 9.49318 26.2789C8.17294 26.2789 7.04131 26.0275 5.97255 25.3359C5.78394 25.273 5.65821 25.273 5.53247 25.3359Z" fill="#1EACFF"/>
<path d="M2.89197 20.1809C3.20631 20.4952 3.52065 20.8096 3.83499 21.1239C4.77802 22.1298 5.78391 23.1357 7.04128 23.7644C8.48725 24.5188 10.059 24.3302 11.6307 24.3302H22.1926L19.8036 21.1239C15.5285 21.1239 9.68175 21.1239 6.78981 21.1239C5.46957 21.1239 4.33793 20.8724 3.26917 20.1809C3.14344 20.118 3.0177 20.118 2.89197 20.1809Z" fill="#007AFF"/>
<path d="M0 15.0883C0.314342 15.4027 0.628684 15.717 0.943026 16.0314C1.88605 17.0373 2.89195 18.0432 4.14932 18.6718C5.59529 19.4263 7.16699 19.2377 8.7387 19.2377H18.4204L16.0314 16.0314C11.8821 16.0314 6.60118 16.0314 3.96071 16.0314C2.64047 16.0314 1.50884 15.7799 0.440077 15.0883C0.251472 15.0255 0.125737 15.0255 0 15.0883Z" fill="#085DC5"/>
<path d="M38 23.8645V5.15556H44.163C46.1256 5.15556 47.5929 5.65079 48.5651 6.64127C49.5556 7.63175 50.0508 8.95238 50.0508 10.6032V12.0614C50.0508 13.7122 49.5556 15.042 48.5651 16.0508C47.5929 17.0413 46.1256 17.5365 44.163 17.5365H41.3016V23.8645H38ZM44.163 8.31958H41.3016V14.3725H44.163C44.97 14.3725 45.5845 14.1707 46.0063 13.7672C46.4466 13.3637 46.6667 12.7951 46.6667 12.0614V10.6032C46.6667 9.88783 46.4466 9.3284 46.0063 8.92487C45.5845 8.52134 44.97 8.31958 44.163 8.31958Z" fill="#1E1E1E"/>
<path d="M63.8166 24.0021C62.8812 24.0021 62.1292 23.8095 61.5606 23.4243C61.0103 23.0392 60.6068 22.5623 60.35 21.9937C59.5613 22.7273 58.8001 23.2684 58.0664 23.6169C57.3327 23.9654 56.544 24.1397 55.7002 24.1397C54.4713 24.1397 53.5634 23.7453 52.9764 22.9566C52.4078 22.1679 52.1235 21.1683 52.1235 19.9577C52.1235 19.1506 52.2703 18.4444 52.5637 17.8392C52.8756 17.2155 53.38 16.7295 54.077 16.381C54.774 16.0325 55.7278 15.8582 56.9383 15.8582C57.4152 15.8582 57.9105 15.8949 58.4241 15.9683C58.9376 16.0233 59.4512 16.0966 59.9648 16.1884V14.5651C59.9648 13.7947 59.7539 13.272 59.332 12.9968C58.9101 12.7034 58.3415 12.5566 57.6262 12.5566C57.0759 12.5566 56.4706 12.63 55.8103 12.7767C55.1683 12.9235 54.4713 13.1527 53.7193 13.4646L52.8114 10.7683C54.6639 10.0162 56.3422 9.64021 57.8463 9.64021C59.2036 9.64021 60.2491 9.86949 60.9828 10.328C61.7348 10.7866 62.2576 11.3919 62.551 12.1439C62.8445 12.8959 62.9913 13.703 62.9913 14.5651V19.9302C62.9913 20.2053 63.0646 20.4713 63.2114 20.728C63.3764 20.9665 63.6883 21.0857 64.1468 21.0857H64.4495V24.0021H63.8166ZM55.1775 19.9026C55.1775 20.3979 55.2875 20.7922 55.5077 21.0857C55.7278 21.3608 56.0487 21.4984 56.4706 21.4984C56.8925 21.4984 57.3694 21.3884 57.9013 21.1683C58.4332 20.9481 59.1211 20.4346 59.9648 19.6275V18.4444C59.011 18.2794 58.0756 18.1968 57.1584 18.1968C56.4431 18.1968 55.9295 18.3436 55.6177 18.637C55.3242 18.9305 55.1775 19.3524 55.1775 19.9026Z" fill="#1E1E1E"/>
<path d="M72.4334 25.2402C71.8282 26.9277 71.0578 28.1383 70.1223 28.872C69.1869 29.624 67.9029 30 66.2705 30V26.836C67.2426 26.7993 68.0038 26.5792 68.5541 26.1757C69.1227 25.7905 69.5446 25.2494 69.8197 24.5524L70.0673 23.9196L65.0874 9.91534H68.2239L70.6176 16.8762L71.553 19.8201L72.461 16.8762L74.7446 9.91534H77.8811L72.4334 25.2402Z" fill="#1E1E1E"/>
<path d="M78.7071 8.31958V5.15556H92.4637V8.31958H87.2362V23.8645H83.9346V8.31958H78.7071Z" fill="#1E1E1E"/>
<path d="M98.2516 7.27407H94.9225V4H98.2516V7.27407ZM98.1691 23.8645H95.005V9.91534H98.1691V23.8645Z" fill="#1E1E1E"/>
<path d="M104.949 16.0783V17.7016C104.949 18.8755 105.16 19.7559 105.582 20.3429C106.004 20.9298 106.683 21.2233 107.618 21.2233C108.077 21.2233 108.59 21.1683 109.159 21.0582C109.746 20.9298 110.379 20.7372 111.057 20.4804L111.965 23.1492C111.14 23.4794 110.36 23.727 109.627 23.8921C108.893 24.0571 108.168 24.1397 107.453 24.1397C105.619 24.1397 104.216 23.5527 103.244 22.3788C102.271 21.2049 101.785 19.6459 101.785 17.7016V16.0783C101.785 14.1157 102.271 12.5566 103.244 11.4011C104.216 10.2272 105.619 9.64021 107.453 9.64021C108.15 9.64021 108.856 9.72275 109.572 9.88783C110.287 10.0529 111.039 10.2914 111.828 10.6032L110.92 13.327C109.599 12.8134 108.499 12.5566 107.618 12.5566C106.683 12.5566 106.004 12.8501 105.582 13.437C105.16 14.0056 104.949 14.8861 104.949 16.0783Z" fill="#1E1E1E"/>
</svg>
