<svg width="52" height="52" viewBox="0 0 52 52" fill="none" xmlns="http://www.w3.org/2000/svg">
<g filter="url(#filter0_d_10_1808)">
<path d="M2 11C2 5.47715 6.47715 1 12 1H40C45.5229 1 50 5.47715 50 11V39C50 44.5229 45.5228 49 40 49H12C6.47715 49 2 44.5228 2 39V11Z" fill="white" shape-rendering="crispEdges"/>
<path d="M2.5 11C2.5 5.75329 6.75329 1.5 12 1.5H40C45.2467 1.5 49.5 5.75329 49.5 11V39C49.5 44.2467 45.2467 48.5 40 48.5H12C6.75329 48.5 2.5 44.2467 2.5 39V11Z" stroke="#E7E7E7" shape-rendering="crispEdges"/>
<path d="M31 34V32C31 30.9391 30.5786 29.9217 29.8284 29.1716C29.0783 28.4214 28.0609 28 27 28H19C17.9391 28 16.9217 28.4214 16.1716 29.1716C15.4214 29.9217 15 30.9391 15 32V34M37 34V32C36.9993 31.1137 36.7044 30.2528 36.1614 29.5523C35.6184 28.8519 34.8581 28.3516 34 28.13M30 16.13C30.8604 16.3503 31.623 16.8507 32.1676 17.5523C32.7122 18.2539 33.0078 19.1168 33.0078 20.005C33.0078 20.8932 32.7122 21.7561 32.1676 22.4577C31.623 23.1593 30.8604 23.6597 30 23.88M27 20C27 22.2091 25.2091 24 23 24C20.7909 24 19 22.2091 19 20C19 17.7909 20.7909 16 23 16C25.2091 16 27 17.7909 27 20Z" stroke="#007AFF" stroke-width="2" stroke-linecap="round" stroke-linejoin="round"/>
</g>
<defs>
<filter id="filter0_d_10_1808" x="0" y="0" width="52" height="52" filterUnits="userSpaceOnUse" color-interpolation-filters="sRGB">
<feFlood flood-opacity="0" result="BackgroundImageFix"/>
<feColorMatrix in="SourceAlpha" type="matrix" values="0 0 0 0 0 0 0 0 0 0 0 0 0 0 0 0 0 0 127 0" result="hardAlpha"/>
<feOffset dy="1"/>
<feGaussianBlur stdDeviation="1"/>
<feComposite in2="hardAlpha" operator="out"/>
<feColorMatrix type="matrix" values="0 0 0 0 0.0627451 0 0 0 0 0.0941176 0 0 0 0 0.156863 0 0 0 0.05 0"/>
<feBlend mode="normal" in2="BackgroundImageFix" result="effect1_dropShadow_10_1808"/>
<feBlend mode="normal" in="SourceGraphic" in2="effect1_dropShadow_10_1808" result="shape"/>
</filter>
</defs>
</svg>
