<svg width="52" height="52" viewBox="0 0 52 52" fill="none" xmlns="http://www.w3.org/2000/svg">
<g filter="url(#filter0_d_10_1812)">
<path d="M2 11C2 5.47715 6.47715 1 12 1H40C45.5229 1 50 5.47715 50 11V39C50 44.5229 45.5228 49 40 49H12C6.47715 49 2 44.5228 2 39V11Z" fill="white" shape-rendering="crispEdges"/>
<path d="M2.5 11C2.5 5.75329 6.75329 1.5 12 1.5H40C45.2467 1.5 49.5 5.75329 49.5 11V39C49.5 44.2467 45.2467 48.5 40 48.5H12C6.75329 48.5 2.5 44.2467 2.5 39V11Z" stroke="#E7E7E7" shape-rendering="crispEdges"/>
<path d="M32 16C31.2044 16 30.4413 16.3161 29.8787 16.8787C29.3161 17.4413 29 18.2044 29 19V31C29 31.7956 29.3161 32.5587 29.8787 33.1213C30.4413 33.6839 31.2044 34 32 34C32.7956 34 33.5587 33.6839 34.1213 33.1213C34.6839 32.5587 35 31.7956 35 31C35 30.2044 34.6839 29.4413 34.1213 28.8787C33.5587 28.3161 32.7956 28 32 28H20C19.2044 28 18.4413 28.3161 17.8787 28.8787C17.3161 29.4413 17 30.2044 17 31C17 31.7956 17.3161 32.5587 17.8787 33.1213C18.4413 33.6839 19.2044 34 20 34C20.7956 34 21.5587 33.6839 22.1213 33.1213C22.6839 32.5587 23 31.7956 23 31V19C23 18.2044 22.6839 17.4413 22.1213 16.8787C21.5587 16.3161 20.7956 16 20 16C19.2044 16 18.4413 16.3161 17.8787 16.8787C17.3161 17.4413 17 18.2044 17 19C17 19.7956 17.3161 20.5587 17.8787 21.1213C18.4413 21.6839 19.2044 22 20 22H32C32.7956 22 33.5587 21.6839 34.1213 21.1213C34.6839 20.5587 35 19.7956 35 19C35 18.2044 34.6839 17.4413 34.1213 16.8787C33.5587 16.3161 32.7956 16 32 16Z" stroke="#007AFF" stroke-width="2" stroke-linecap="round" stroke-linejoin="round"/>
</g>
<defs>
<filter id="filter0_d_10_1812" x="0" y="0" width="52" height="52" filterUnits="userSpaceOnUse" color-interpolation-filters="sRGB">
<feFlood flood-opacity="0" result="BackgroundImageFix"/>
<feColorMatrix in="SourceAlpha" type="matrix" values="0 0 0 0 0 0 0 0 0 0 0 0 0 0 0 0 0 0 127 0" result="hardAlpha"/>
<feOffset dy="1"/>
<feGaussianBlur stdDeviation="1"/>
<feComposite in2="hardAlpha" operator="out"/>
<feColorMatrix type="matrix" values="0 0 0 0 0.0627451 0 0 0 0 0.0941176 0 0 0 0 0.156863 0 0 0 0.05 0"/>
<feBlend mode="normal" in2="BackgroundImageFix" result="effect1_dropShadow_10_1812"/>
<feBlend mode="normal" in="SourceGraphic" in2="effect1_dropShadow_10_1812" result="shape"/>
</filter>
</defs>
</svg>
