<svg width="92" height="92" viewBox="0 0 92 92" fill="none" xmlns="http://www.w3.org/2000/svg">
<g filter="url(#filter0_d_144_286)">
<path d="M2 13C2 6.37258 7.37258 1 14 1H78C84.6274 1 90 6.37258 90 13V77C90 83.6274 84.6274 89 78 89H14C7.37258 89 2 83.6274 2 77V13Z" fill="white" shape-rendering="crispEdges"/>
<path d="M2.5 13C2.5 6.64873 7.64873 1.5 14 1.5H78C84.3513 1.5 89.5 6.64873 89.5 13V77C89.5 83.3513 84.3513 88.5 78 88.5H14C7.64873 88.5 2.5 83.3513 2.5 77V13Z" stroke="#EFEFEF" shape-rendering="crispEdges"/>
<path fill-rule="evenodd" clip-rule="evenodd" d="M29.9978 55.3511H24.458L20.3039 39.0366C20.1067 38.2861 19.6881 37.6227 19.0722 37.31C17.5354 36.5242 15.8418 35.8988 13.9943 35.5834V34.9553H22.9185C24.1501 34.9553 25.0739 35.8988 25.2278 36.9946L27.3832 48.7628L32.9203 34.9553H38.3061L29.9978 55.3511ZM41.3853 55.3511H36.1535L40.4616 34.9553H45.6934L41.3853 55.3511ZM52.4621 40.6055C52.6161 39.507 53.5398 38.8789 54.6175 38.8789C56.3111 38.7212 58.1559 39.0366 59.6954 39.8197L60.6192 35.4284C59.0796 34.8003 57.3861 34.4849 55.8492 34.4849C50.7713 34.4849 47.0763 37.31 47.0763 41.2309C47.0763 44.2137 49.6936 45.7799 51.5411 46.7234C53.5398 47.6642 54.3096 48.2923 54.1557 49.2332C54.1557 50.6444 52.6161 51.2725 51.0792 51.2725C49.2317 51.2725 47.3842 50.8021 45.6934 50.0162L44.7697 54.4103C46.6171 55.1934 48.6159 55.5088 50.4634 55.5088C56.1571 55.6638 59.6954 52.8414 59.6954 48.605C59.6954 43.2702 52.4621 42.9575 52.4621 40.6055ZM78.0057 55.3511L73.8515 34.9553H69.3894C68.4657 34.9553 67.5419 35.5834 67.234 36.5242L59.5415 55.3511H64.9273L66.0024 52.371H72.6198L73.2357 55.3511H78.0057ZM70.1592 40.4481L71.6961 48.1349H67.388L70.1592 40.4481Z" fill="#172B85"/>
</g>
<defs>
<filter id="filter0_d_144_286" x="0" y="0" width="92" height="92" filterUnits="userSpaceOnUse" color-interpolation-filters="sRGB">
<feFlood flood-opacity="0" result="BackgroundImageFix"/>
<feColorMatrix in="SourceAlpha" type="matrix" values="0 0 0 0 0 0 0 0 0 0 0 0 0 0 0 0 0 0 127 0" result="hardAlpha"/>
<feOffset dy="1"/>
<feGaussianBlur stdDeviation="1"/>
<feComposite in2="hardAlpha" operator="out"/>
<feColorMatrix type="matrix" values="0 0 0 0 0.0627451 0 0 0 0 0.0941176 0 0 0 0 0.156863 0 0 0 0.05 0"/>
<feBlend mode="normal" in2="BackgroundImageFix" result="effect1_dropShadow_144_286"/>
<feBlend mode="normal" in="SourceGraphic" in2="effect1_dropShadow_144_286" result="shape"/>
</filter>
</defs>
</svg>
